<svg xmlns="http://www.w3.org/2000/svg" viewBox="0 0 100.24 32.32"><defs><style>.cls-1,.cls-2{fill:none;stroke-width:3.07px;}.cls-1{stroke:#666;}.cls-1,.cls-2,.cls-3{stroke-miterlimit:10;}.cls-2{stroke:#0071bc;}.cls-3{fill:#f2f2f2;stroke:#000;stroke-width:0.5px;}.cls-4{fill:#fff;}</style></defs><g id="Layer_2" data-name="Layer 2"><g id="Layer_1-2" data-name="Layer 1"><path class="cls-1" d="M1.6,16.87v.42H7.52c0-4,1.91-6.8,5.72-8.37a7.92,7.92,0,0,1,3-.38H29.92V2.18H15.46q-8,0-12.38,8.14A14.85,14.85,0,0,0,1.6,16.87Z"/><path class="cls-2" d="M29.86,15.43V15H23.93q0,6-5.71,8.37a7.94,7.94,0,0,1-3,.38H1.53v6.36H16q8,0,12.38-8.14A14.86,14.86,0,0,0,29.86,15.43Z"/><path class="cls-3" d="M43.19,24l-2.1-1.57V6a7.16,7.16,0,0,1,.6-3.33A4.67,4.67,0,0,1,43.75.76V.28a6.36,6.36,0,0,0-2.58.59,9.27,9.27,0,0,0-2.5,2,6.36,6.36,0,0,0-3-2l-.29.37a6.19,6.19,0,0,1,1.31,1.34,3.66,3.66,0,0,1,.52,1.25,14.87,14.87,0,0,1,.13,2.34v13.2q0,2-.06,2.22a3.22,3.22,0,0,1-.4,1.13,2.33,2.33,0,0,1-.8.79V24a9.75,9.75,0,0,1,2.19.87,18.79,18.79,0,0,1,2.51,1.94L44.47,24,44,23.3Z"/><path class="cls-3" d="M57.46,7.06l-5.87,4.55V5.11A5.9,5.9,0,0,1,52,2.43,4.94,4.94,0,0,1,53.92.76L53.79.28a7.33,7.33,0,0,0-2,.52,20.69,20.69,0,0,0-2.71,1.73,5.13,5.13,0,0,0-1-.84A19.22,19.22,0,0,0,46.15.76l-.33.46A4.51,4.51,0,0,1,47.43,3a7.9,7.9,0,0,1,.42,3V16.71a24.14,24.14,0,0,1-.31,5.05,2.41,2.41,0,0,1-1,1.3v.33a26,26,0,0,1,4.64,1.38,14,14,0,0,1,3.13,2,13.9,13.9,0,0,1,2.18-1.63,26.91,26.91,0,0,1,3.75-1.75V12.24a6.43,6.43,0,0,0-.57-3A6.76,6.76,0,0,0,57.46,7.06ZM56.41,23.59l-4.82-1.9v-9.2L54.88,10a3.71,3.71,0,0,1,1.27,1.23,5.22,5.22,0,0,1,.26,2Z"/><path class="cls-3" d="M78.75,23.67a.67.67,0,0,1-.54-.39,3.4,3.4,0,0,1-.39-1.82V12.64a5.44,5.44,0,0,1,.38-2.24,6.81,6.81,0,0,1,1.58-1.8l-.52-.5L77.45,9.84,74.93,7.06l-5.67,4.55v-.67a3.86,3.86,0,0,0-.41-2,8,8,0,0,0-2-1.92l-3.93,3.26.46.57q.73-.72,1.11-.72t.63.48a6.07,6.07,0,0,1,.41,2.71V22.8L64.1,24.12l3.29,2.65,3.26-2.65L69.26,22.8V12.54L72.42,10l1.63,1.72V21.85a6.94,6.94,0,0,0,.44,2.87,6.49,6.49,0,0,0,2,2.05l4-3.25L80,22.94A3.62,3.62,0,0,1,78.75,23.67Z"/><path class="cls-3" d="M100,12.18V8L96.55,9.76l-5.76-2.7a20.4,20.4,0,0,1-6.72,2.7V23.15l4.38,3.14-4.38,5.1.26.63A21.87,21.87,0,0,1,90,31.15a11,11,0,0,1,2.15.22,16.3,16.3,0,0,1,2.37.65A20.54,20.54,0,0,0,99,29.51a2.39,2.39,0,0,0,.84-1.7c0-.6-.53-1.58-1.61-2.94a7.71,7.71,0,0,1-1.31-2.18,10.37,10.37,0,0,1-.24-2.76V11.54Zm-12.15,9.7V9.76l5,1.74v9.6l-2.32,2.76Zm9.58,7.35-.76.48a12.89,12.89,0,0,0-2.75-1.07,10.46,10.46,0,0,0-2.69-.35,25.3,25.3,0,0,0-3.88.39l5.56-6.35A8.07,8.07,0,0,0,94,25.46,20.43,20.43,0,0,0,97.42,29.23Z"/><path d="M39.58,6a8.58,8.58,0,0,1,.62-3.61,11.53,11.53,0,0,0-1.3,1.21l-.75.78-.46-.51a16.9,16.9,0,0,1,.12,2.38V19.49a20.33,20.33,0,0,1-.07,2.38,4.21,4.21,0,0,1-.52,1.47c0,.06-.07.11-.1.16a7.45,7.45,0,0,1,1.13.54,15.9,15.9,0,0,1,2,1.52l1.37-1L39.58,23Z"/><path class="cls-4" d="M40.28,26.2l-.3-.26a16.6,16.6,0,0,0-2-1.47,7,7,0,0,0-1.06-.5l-.58-.23.43-.66a3.59,3.59,0,0,0,.46-1.29c0-.09,0-.26.06-2.3V6.28A17.59,17.59,0,0,0,37.2,4l-.27-1.67,1.23,1.36.37-.39A12.25,12.25,0,0,1,39.89,2L41.55.75l-.9,1.89A8,8,0,0,0,40.08,6V22.71l2.42,1.81Zm-2.45-2.94c.24.11.46.22.67.34a15,15,0,0,1,1.81,1.32l.53-.4-1.76-1.31V6a13.53,13.53,0,0,1,.14-2l-.93,1c0,.37,0,.8,0,1.28V19.49A23.71,23.71,0,0,1,38.24,22,5.34,5.34,0,0,1,37.83,23.26Z"/><path d="M57,8.39,55.43,9.58a3.66,3.66,0,0,1,1.11,1.25,5.8,5.8,0,0,1,.37,2.43V23.6c.56-.27,1.17-.55,1.83-.82V12.31a5.54,5.54,0,0,0-.46-2.5A4.63,4.63,0,0,0,57,8.39Z"/><path class="cls-4" d="M56.41,24.39V13.26a5.31,5.31,0,0,0-.32-2.21,3.28,3.28,0,0,0-1-1.08l-.51-.39L57,7.75l.31.24a5.25,5.25,0,0,1,1.44,1.59,5.94,5.94,0,0,1,.52,2.73V23.12l-.31.13c-.65.26-1.25.53-1.8.8ZM56.22,9.6a3.44,3.44,0,0,1,.77,1,6.15,6.15,0,0,1,.42,2.65v9.55l.83-.36V12.31a5.15,5.15,0,0,0-.4-2.27A3.82,3.82,0,0,0,57,9Z"/><path d="M50.08,5.19a8.24,8.24,0,0,1,.35-2.65c-.34.22-.76.51-1.27.88l-.71.51-.31-.33a12.15,12.15,0,0,1,.21,2.47V16.78A21.44,21.44,0,0,1,48,22.1a2.7,2.7,0,0,1-.31.72,22.06,22.06,0,0,1,3.39,1.11,14.85,14.85,0,0,1,2.7,1.62,15,15,0,0,1,1.48-1.07l-5.18-2Z"/><path class="cls-4" d="M53.79,26.18,53.48,26a14.09,14.09,0,0,0-2.6-1.56,21.43,21.43,0,0,0-3.31-1.08l-.65-.17.34-.57a2.73,2.73,0,0,0,.26-.61,24.24,24.24,0,0,0,.33-5.18V6.07a11.79,11.79,0,0,0-.2-2.36L47.28,2l1.23,1.32L48.87,3c.52-.37.94-.66,1.29-.89L51.4,1.3l-.5,1.4a7.88,7.88,0,0,0-.32,2.49V22.1l5.79,2.28-.84.53a12.57,12.57,0,0,0-1.43,1ZM48.4,22.49a19.91,19.91,0,0,1,2.89,1,14.82,14.82,0,0,1,2.48,1.44c.14-.11.28-.22.43-.32l-4.62-1.82V5.19a11.51,11.51,0,0,1,.09-1.52l-.22.16-.69.49a15.09,15.09,0,0,1,.09,1.75V16.78a21.75,21.75,0,0,1-.37,5.46A2.41,2.41,0,0,1,48.4,22.49Z"/><path d="M67.76,11a3,3,0,0,0-.27-1.46,5,5,0,0,0-1.16-1.14L64.92,9.59a2.13,2.13,0,0,1,.52.63A6.57,6.57,0,0,1,66,13.44V23.3l-.87.83,1.76,1.43,1.75-1.43-.87-.83Z"/><path class="cls-4" d="M66.88,26.2l-2.52-2,1.13-1.08V13.44a6.37,6.37,0,0,0-.48-3A1.55,1.55,0,0,0,64.6,10l-.48-.38,2.21-1.83.32.26a5.85,5.85,0,0,1,1.27,1.28A3.54,3.54,0,0,1,68.26,11V23.08l1.13,1.08Zm-1-2.1,1,.81,1-.81-.62-.59V11a2.52,2.52,0,0,0-.21-1.21,3.23,3.23,0,0,0-.72-.74l-.68.56a2.88,2.88,0,0,1,.23.34,7.2,7.2,0,0,1,.61,3.47V23.51Z"/><path d="M76.87,23.9a4.31,4.31,0,0,1-.55-2.37V12.72a8.12,8.12,0,0,1,.18-1.82L74.32,8.5,72.89,9.65l1.66,1.76V21.92a6.06,6.06,0,0,0,.33,2.44A4.36,4.36,0,0,0,76,25.56l1.39-1.14A2,2,0,0,1,76.87,23.9Z"/><path class="cls-4" d="M75.94,26.21l-.31-.27a4.91,4.91,0,0,1-1.2-1.36,6.53,6.53,0,0,1-.38-2.66V11.61l-1.9-2,2.22-1.78,2.68,2.94L77,11a7.16,7.16,0,0,0-.17,1.71v8.81a3.76,3.76,0,0,0,.47,2.09h0a1.2,1.2,0,0,0,.34.39l.5.39ZM73.62,9.7l1.43,1.51V21.92a5.53,5.53,0,0,0,.28,2.22,3,3,0,0,0,.63.76l.64-.52-.15-.22a4.76,4.76,0,0,1-.63-2.63V12.72A8.4,8.4,0,0,1,76,11.05L74.27,9.19Z"/><path d="M89.2,24.53l-2.86-2.07V10.11c-.58.2-1.17.37-1.77.52V22.71l3.82,2.74Z"/><path class="cls-4" d="M88.47,26.12,84.07,23V10.24l.38-.1c.58-.14,1.16-.31,1.73-.5l.66-.23V22.2l3.1,2.25Zm-3.4-3.67,3.25,2.33.14-.16-2.62-1.91V10.8l-.77.22Z"/><path d="M95.45,23.07A10.67,10.67,0,0,1,95.16,20V10.52L90.35,8.27c-.57.34-1.16.65-1.77.94l4.81,1.65V21.53l-.09.1.09.63a7,7,0,0,0,1,2.75,19.68,19.68,0,0,0,3.21,3.56l.25.23c.48-.49.48-.81.48-.92s0-.57-1.39-2.31A8.28,8.28,0,0,1,95.45,23.07Z"/><path class="cls-4" d="M97.86,29.5l-.61-.56A20.81,20.81,0,0,1,94,25.27a7.58,7.58,0,0,1-1.06-2.94l-.12-.85.12-.13V11.22L87.26,9.28l1.11-.53a19,19,0,0,0,1.73-.91l.22-.14,5.34,2.51V20a11.07,11.07,0,0,0,.26,2.92h0a7.81,7.81,0,0,0,1.4,2.33c1.35,1.73,1.5,2.41,1.5,2.63a1.72,1.72,0,0,1-.62,1.27Zm-4-7.71,0,.4a6.62,6.62,0,0,0,.92,2.56,18.85,18.85,0,0,0,3,3.31.58.58,0,0,0,0-.18h0a7.15,7.15,0,0,0-1.28-2A8.54,8.54,0,0,1,95,23.23h0A10.92,10.92,0,0,1,94.66,20V10.84l-4.28-2-.51.29,4,1.38V21.71Z"/><polygon points="96.6 10.68 98.49 11.04 98.49 9.72 96.6 10.68"/><polygon class="cls-4" points="98.99 11.65 95.07 10.89 98.99 8.91 98.99 11.65"/><path d="M90.72,29.36a26,26,0,0,0-3.73.37l-.72.12-.69.8a20.28,20.28,0,0,1,3.89-.42,12.73,12.73,0,0,1,2.33.22,15.74,15.74,0,0,1,2.13.57c.47-.22.88-.43,1.24-.61a11.38,11.38,0,0,0-2-.73A9.85,9.85,0,0,0,90.72,29.36Z"/><path class="cls-4" d="M94,31.55l-.19-.06A14.63,14.63,0,0,0,91.71,31a11.87,11.87,0,0,0-2.24-.22,19.25,19.25,0,0,0-3.79.41l-1.42.28,1.75-2,.9-.15a25.6,25.6,0,0,1,3.81-.38,10.34,10.34,0,0,1,2.56.33,12.16,12.16,0,0,1,2.1.77l.94.44-.93.46-1.25.61ZM91.51,29.9l.39.06a16.91,16.91,0,0,1,2,.52l.06,0c-.32-.11-.62-.21-.93-.29A9.12,9.12,0,0,0,91.51,29.9Z"/></g></g></svg>